<svg width="512" height="512" viewBox="0 0 512 512" fill="none" xmlns="http://www.w3.org/2000/svg">
  <defs>
    <linearGradient id="metalGradient" x1="0" y1="0" x2="1" y2="1">
      <stop offset="0%" stop-color="#f5f5f5" />
      <stop offset="40%" stop-color="#c8c8c8" />
      <stop offset="100%" stop-color="#6a6a6a" />
    </linearGradient>
    <linearGradient id="accentGradient" x1="0" y1="0" x2="1" y2="1">
      <stop offset="0%" stop-color="#00ffff" />
      <stop offset="100%" stop-color="#c900ff" />
    </linearGradient>
  </defs>
  <rect width="512" height="512" rx="64" fill="#10101a" />
  <path d="M120 360L178 128L250 360L312 128L392 360" stroke="url(#metalGradient)" stroke-width="38" stroke-linecap="round" stroke-linejoin="round" />
  <path d="M90 360H420" stroke="url(#accentGradient)" stroke-width="16" stroke-linecap="round" />
  <path d="M112 260C112 210 145 164 204 164C262 164 295 210 295 260" stroke="url(#metalGradient)" stroke-width="18" fill="none" />
  <path d="M358 260C358 210 391 164 450 164C508 164 512 210 512 260" stroke="url(#accentGradient)" stroke-width="12" fill="none" opacity="0.8" />
  <path d="M64 260C64 210 97 164 156 164C214 164 247 210 247 260" stroke="url(#accentGradient)" stroke-width="12" fill="none" opacity="0.8" />
  <text x="256" y="440" text-anchor="middle" font-family="Inter, Arial, sans-serif" font-size="54" font-weight="700" fill="url(#metalGradient)">METAL STYLE</text>
  <text x="256" y="482" text-anchor="middle" font-family="Inter, Arial, sans-serif" font-size="24" fill="#8bdcff">ARTISAN METALWORK</text>
</svg>
